<svg xmlns="http://www.w3.org/2000/svg" width="354.183" height="58.907" id="prefix__svg3065" version="1.1"><script/><defs id="prefix__defs3067"><clipPath clipPathUnits="userSpaceOnUse" id="prefix__clipPath3019"><path d="M0 0h595.276v841.89H0V0z" id="prefix__path3021"/></clipPath></defs><g id="prefix__layer1" transform="translate(25.663 -268.623)"><g id="prefix__g2995" transform="matrix(1.25 0 0 -1.25 10.213 296.534)"><path d="M0 0l4.34-6.883 8.73 13.914v-30.822h7.52v44.834h-7.674L0 0z" id="prefix__path2997" fill="#000" fill-opacity="1" fill-rule="nonzero" stroke="none"/></g><g id="prefix__g2999" transform="matrix(1.25 0 0 -1.25 -16.156 270.23)"><path d="M0 0h-7.606v-44.834h7.539v30.822L17.049-41.38l4.366 6.984L0 0z" id="prefix__path3001" fill="#000" fill-opacity="1" fill-rule="nonzero" stroke="none"/></g><g id="prefix__g3003" transform="matrix(1.25 0 0 -1.25 92.48 308.9)"><path d="M0 0l6.958-13.897h9.069L-6.725 30.936h-8.176l-.007-.014L-3.516 7.146h-15.138l3.951 7.751-4.121 8.423-19.171-37.217h8.482l7.166 13.894L0 0z" id="prefix__path3005" fill="#000" fill-opacity="1" fill-rule="nonzero" stroke="none"/></g><g id="prefix__g3007" transform="matrix(1.25 0 0 -1.25 175.279 270.23)"><path d="M0 0h-7.541v-21.772L0-29.345V0z" id="prefix__path3009" fill="#000" fill-opacity="1" fill-rule="nonzero" stroke="none"/></g><g id="prefix__g3011" transform="matrix(1.25 0 0 -1.25 129.785 270.23)"><path d="M0 0h-7.672v-44.834h7.544v33.501L30.78-44.834h5.615v5.448L0 0z" id="prefix__path3013" fill="#000" fill-opacity="1" fill-rule="nonzero" stroke="none"/></g><g transform="matrix(1.25 0 0 -1.25 -220.618 864.258)" id="prefix__g3015"><g id="prefix__g3017" clip-path="url(#prefix__clipPath3019)"><g id="prefix__g3023" transform="translate(369.413 462.781)"><path d="M0 0c-3.591 3.729-9.128 6.117-15.34 6.117-9.914 0-18.108-6.086-19.415-13.984h-8.303c1.085 12.259 13.629 21.295 27.82 21.295 8.44 0 16.023-3.143 21.128-8.2L0 0z" id="prefix__path3025" fill="#000" fill-opacity="1" fill-rule="nonzero" stroke="none"/></g><g id="prefix__g3027" transform="translate(353.373 436.65)"><path d="M0 0c-8.277 0-15.323 4.485-17.951 10.759h-8.47C-23.62-.055-12.607-7.268.469-7.268c3.036 0 6.53.3 9.431 1.02 6.547 1.62 13.697 5.875 13.697 12.592v11.92H-.087l-.017-7.505h16.132V7.352c0-3.762-5.621-5.938-9.061-6.702C5.116.239 2.74 0 .822 0H0z" id="prefix__path3029" fill="#000" fill-opacity="1" fill-rule="nonzero" stroke="none"/></g><g id="prefix__g3031" transform="translate(439.311 452.764)"><path d="M0 0c0 13.371-12.137 23.744-27.045 23.744-14.435 0-27.117-9.894-27.117-23.024 0-12.38 9.96-22.299 23.377-23.872v7.49C-39.563-14.216-46.197-7.658-46.197.229c0 8.947 8.531 16.205 19.05 16.205 10.524 0 19.052-7.258 19.052-16.205 0-7.826-6.53-14.34-15.206-15.855v-7.506C-10.427-21.567 0-12.018 0 0" id="prefix__path3033" fill="#000" fill-opacity="1" fill-rule="nonzero" stroke="none"/></g></g></g></g></svg>